<?xml version="1.0" standalone="no"?>
<!DOCTYPE svg PUBLIC "-//W3C//DTD SVG 20010904//EN"
 "http://www.w3.org/TR/2001/REC-SVG-20010904/DTD/svg10.dtd">
<svg version="1.0" xmlns="http://www.w3.org/2000/svg"
 width="700.000000pt" height="700.000000pt" viewBox="0 0 700.000000 700.000000"
 preserveAspectRatio="xMidYMid meet">
<metadata>
Created by potrace 1.11, written by Peter Selinger 2001-2013
</metadata>
<g transform="translate(0.000000,700.000000) scale(0.100000,-0.100000)"
fill="#000000" stroke="none">
<path d="M1765 5531 c-122 -35 -236 -138 -287 -260 l-23 -56 -2 -1695 c-2
-1208 0 -1706 8 -1735 44 -161 177 -290 335 -325 28 -7 486 -10 1273 -10 1360
0 1277 -4 1391 65 63 38 106 81 145 144 50 80 58 117 64 280 l6 154 300 151
c166 83 316 162 335 176 93 68 169 173 212 290 l23 65 2 840 c3 917 4 891 -55
1015 -73 154 -217 273 -383 316 -46 12 -115 18 -244 20 -99 1 -183 2 -186 3
-4 1 -9 56 -11 124 -4 93 -10 135 -26 177 -43 109 -140 207 -252 253 l-55 22
-1255 2 c-1165 2 -1259 1 -1315 -16z m2532 -292 c30 -15 47 -32 63 -63 20 -41
20 -56 18 -435 l-3 -392 -245 0 c-135 0 -266 0 -291 1 l-47 0 0 106 c0 123
-14 160 -73 193 -66 37 -148 19 -193 -42 -18 -24 -22 -48 -26 -144 l-5 -115
-120 0 c-66 1 -131 1 -145 2 l-25 0 1 100 c2 84 -1 106 -20 142 -51 100 -194
104 -251 7 -16 -27 -20 -54 -21 -139 -1 -58 -2 -107 -3 -110 -1 -4 -127 -4
-273 0 -16 0 -18 12 -18 103 0 118 -14 158 -69 194 -66 44 -158 21 -201 -49
-17 -28 -20 -51 -20 -140 l0 -108 -50 -1 c-27 0 -151 0 -275 0 -124 0 -234 0
-244 0 -18 1 -19 15 -19 396 1 445 2 450 74 492 36 21 42 21 1238 21 1176 0
1202 0 1243 -19z m797 -599 c65 -33 130 -107 147 -167 11 -39 14 -193 14 -848
l0 -800 -23 -51 c-38 -83 -79 -114 -313 -232 -119 -60 -223 -111 -232 -115
-16 -6 -17 74 -17 1119 l0 1125 188 -3 c176 -3 190 -4 236 -28z"/>
</g>
</svg>
