<svg width="411" height="184" viewBox="0 0 411 184" fill="none" xmlns="http://www.w3.org/2000/svg">
<path d="M12.449 125.538C12.1707 125.471 11.8924 125.404 11.6142 125.337C11.3359 125.271 11.0576 125.204 10.7793 125.137C10.4865 125.008 10.2177 124.84 9.97285 124.634C9.58343 123.805 9.32593 122.977 9.20035 122.152C9.12266 121.251 9.13849 120.327 9.24784 119.382C9.31834 117.986 9.528 116.623 9.8768 115.294C10.2879 113.951 10.7687 112.624 11.319 111.314C12.0653 109.433 12.987 107.741 14.084 106.238C15.2288 104.659 16.4961 103.182 17.8858 101.809C19.6062 100.162 21.67 98.862 24.0771 97.9097C24.2018 97.8807 24.3264 97.8518 24.4511 97.8229C24.6237 97.7172 24.7724 97.6499 24.8971 97.621C25.8223 97.078 26.7263 96.8683 27.6091 96.9922C28.4919 97.116 29.3652 97.3405 30.229 97.6658C30.5073 97.7327 30.7616 97.8379 30.992 97.9816C31.2224 98.1253 31.484 98.2617 31.7768 98.3909C33.1447 99.1906 34.4888 100.029 35.8089 100.905C38.5258 102.706 40.0442 105.146 40.364 108.225C40.4562 109.19 40.4787 110.137 40.4317 111.068C40.3847 111.998 40.2754 112.943 40.1037 113.903C39.7693 115.294 39.4038 116.693 39.0071 118.099C38.6583 119.428 38.24 120.741 37.752 122.036C37.6562 122.19 37.5916 122.336 37.5582 122.476C37.5871 122.6 37.5537 122.739 37.4579 122.893C37.6883 123.037 37.8035 123.108 37.8035 123.108C39.0649 122.882 40.286 123.19 41.467 124.033C42.0814 124.416 42.6958 124.799 43.3102 125.182C43.9102 125.503 44.5174 125.855 45.1318 126.238C45.9287 126.842 46.7785 127.532 47.6811 128.308C48.5359 129.161 49.1846 130.259 49.6273 131.601C50.1234 133.457 50.5498 135.296 50.9067 137.119C51.0223 137.618 51.0684 138.1 51.0449 138.565C51.0693 138.954 51.1081 139.404 51.1614 139.918C51.3285 143.755 50.7063 147.447 49.2949 150.994C48.8259 152.088 48.3186 153.158 47.7728 154.204C47.2126 155.188 46.5828 156.155 45.8834 157.106C45.2942 157.965 44.5754 158.69 43.727 159.281C42.9409 159.858 42.1091 160.379 41.2318 160.845C40.6517 161.177 40.0644 161.477 39.4698 161.747C38.9521 162.064 38.4104 162.419 37.8447 162.813C37.2168 163.222 36.5431 163.575 35.8239 163.873C35.1191 164.234 34.3854 164.469 33.6228 164.581C32.1599 164.788 30.716 164.795 29.2911 164.599C27.8807 164.467 26.4915 164 25.1235 163.201L20.0695 160.529C19.268 160.189 18.5384 159.734 17.8806 159.164C17.2228 158.594 16.6274 158.009 16.0943 157.41C15.1049 156.26 14.8637 154.936 15.3706 153.439C15.5956 152.993 15.7967 152.585 15.9738 152.215C16.1988 151.769 16.5078 151.402 16.9008 151.114C17.3038 151.151 17.6589 151.266 17.9661 151.458C18.3357 151.635 18.6813 151.85 19.003 152.104C19.387 152.344 19.7398 152.59 20.0615 152.844C20.3831 153.098 20.7766 153.237 21.242 153.26C21.5203 153.327 21.7507 153.471 21.9332 153.691C22.1636 153.835 22.4252 153.972 22.7179 154.101C22.5697 154.595 22.4143 155.058 22.2517 155.49C22.1369 155.845 21.9982 156.239 21.8355 156.671C21.8265 157.198 21.887 157.743 22.0171 158.304C22.1951 158.788 22.4978 159.243 22.9252 159.67C23.4962 159.866 24.0695 159.93 24.6451 159.862C25.2207 159.795 25.8035 159.758 26.3935 159.753C26.5037 159.661 26.59 159.609 26.6524 159.594C26.7003 159.517 26.7721 159.402 26.8679 159.248C26.7956 158.937 26.7306 158.656 26.6727 158.407C26.6773 158.143 26.6434 157.855 26.5711 157.543C26.3353 156.81 26.1067 156.107 25.8853 155.436C25.7119 154.688 25.5144 153.978 25.2931 153.307C25.163 152.745 25.0089 152.223 24.8309 151.738C24.7008 151.177 24.6019 150.609 24.5342 150.033C24.4131 148.945 24.2369 147.901 24.0056 146.904C23.7599 145.844 23.5453 144.777 23.3619 143.703C23.005 141.88 22.6242 140.096 22.2195 138.35C21.8626 136.528 21.5369 134.698 21.2424 132.861C21.0346 131.398 20.834 129.967 20.6407 128.566C20.4329 127.103 20.2251 125.64 20.0173 124.177C19.8818 123.026 19.7775 121.868 19.7043 120.702C19.6311 119.537 19.558 118.371 19.4848 117.206C19.4459 116.755 19.5006 116.282 19.6488 115.788C19.6822 115.649 19.7947 115.426 19.9863 115.118C20.6676 115.223 21.2938 115.374 21.8648 115.57C22.4358 115.766 23.0069 115.962 23.5779 116.158C23.924 116.8 24.1454 117.472 24.242 118.172C24.3387 118.872 24.4042 119.58 24.4385 120.295C24.5596 121.383 24.743 122.458 24.9887 123.518C25.2824 124.501 25.5209 125.529 25.7043 126.604C25.8145 126.512 25.908 126.491 25.9848 126.539C26.0472 126.524 26.1023 126.479 26.1502 126.402C27.2996 124.558 28.3098 122.682 29.1808 120.772C30.1143 118.847 30.8629 116.834 31.4268 114.732C31.5605 114.176 31.7087 113.681 31.8713 113.25C32.0195 112.755 32.1605 112.23 32.2942 111.673C32.6909 110.267 32.9363 108.634 33.0303 106.772C33.0393 106.245 33.0172 105.724 32.9639 105.211C32.8961 104.635 32.8596 104.053 32.8542 103.463C32.8298 103.074 32.7119 102.707 32.5004 102.362C32.289 102.017 32.0776 101.672 31.8662 101.327C31.5879 101.26 31.3552 101.248 31.1682 101.291C29.9547 101.441 28.8708 101.725 27.9167 102.144C27.5715 102.355 27.1807 102.512 26.7443 102.613C26.3702 102.699 25.9794 102.856 25.5719 103.082C24.2102 103.726 22.9543 104.543 21.804 105.532C20.6393 106.459 19.5658 107.496 18.5837 108.644C15.8621 111.64 13.9758 115.264 12.9249 119.515C12.6619 120.364 12.4997 121.223 12.4383 122.091C12.4392 122.945 12.4784 123.823 12.5561 124.725C12.585 124.85 12.5756 124.95 12.5277 125.027C12.5421 125.089 12.5638 125.183 12.5927 125.308C12.5927 125.308 12.5448 125.384 12.449 125.538ZM27.771 135.092C28.0457 136.277 28.2819 137.437 28.4798 138.574C28.74 139.696 29.0625 140.804 29.4474 141.897C29.6688 142.569 29.8518 143.216 29.9963 143.84C30.2032 144.449 30.3862 145.096 30.5452 145.782C30.921 147.403 31.3208 148.985 31.7446 150.53C32.2162 151.997 32.6951 153.496 33.1812 155.025C33.1956 155.088 33.2941 155.229 33.4766 155.45C33.539 155.435 33.5774 155.459 33.5918 155.521C33.6542 155.507 33.7165 155.492 33.7788 155.478C34.7041 154.935 35.5142 154.32 36.209 153.633C36.9518 152.87 37.5721 152.003 38.0699 151.034C38.2471 150.664 38.393 150.302 38.5077 149.947C38.6849 149.577 38.8931 149.201 39.1326 148.817C40.2241 146.724 41.1069 144.581 41.781 142.388C42.503 140.119 42.8844 137.796 42.9251 135.422C42.9585 135.283 42.9608 135.151 42.9319 135.026C42.9653 134.887 42.9987 134.748 43.0322 134.609C43.1939 133.323 43.1687 132.08 42.9564 130.881C42.8064 129.668 42.5868 128.438 42.2977 127.191C42.2688 127.066 42.2087 126.949 42.1175 126.838C42.0118 126.666 41.9133 126.524 41.822 126.414C38.9731 126.878 36.4101 127.866 34.1331 129.38C33.8458 129.84 33.5656 130.332 33.2928 130.856C33.0054 131.316 32.6869 131.784 32.3372 132.26C32.0499 132.72 31.7386 133.22 31.4034 133.757C31.116 134.218 30.7591 134.662 30.3326 135.09C30.0399 134.96 29.7783 134.824 29.5479 134.68C29.3175 134.537 29.0943 134.424 28.8783 134.343C28.8015 134.295 28.6384 134.3 28.3891 134.358C28.2788 134.449 28.1758 134.571 28.08 134.725C28.0321 134.802 27.9291 134.924 27.771 135.092ZM75.0464 144.333C74.8739 144.439 74.7708 144.561 74.7374 144.7C74.704 144.839 74.6394 144.986 74.5436 145.139L73.6409 148.896C73.4448 149.467 73.2175 150.046 72.9591 150.631C72.6862 151.154 72.3126 151.668 71.8382 152.172C71.6367 152.153 71.4424 152.165 71.2554 152.209C71.0684 152.252 70.8741 152.264 70.6726 152.245C69.1853 152.064 67.6981 151.884 66.2108 151.703C64.7859 151.508 63.3298 151.32 61.8426 151.139C60.2929 150.973 59.136 150.091 58.3716 148.495C58.1312 148.025 57.9221 147.548 57.7441 147.064C57.5516 146.517 57.3592 145.97 57.1667 145.424C56.5361 143.27 56.1381 141.129 55.9728 138.999C55.8075 136.869 55.798 134.704 55.9445 132.502C56.0249 131.432 56.1821 130.41 56.4162 129.436C56.6981 128.385 56.9873 127.365 57.2837 126.377C57.4319 125.883 57.58 125.388 57.7282 124.894C57.8764 124.4 58.063 123.93 58.288 123.483C59.2115 121.233 60.5985 119.564 62.449 118.478C62.6695 118.296 62.8733 118.183 63.0603 118.139C63.2952 118.019 63.5229 117.868 63.7434 117.685C65.1728 117.617 66.5521 117.757 67.8812 118.105C69.2583 118.377 70.6281 118.618 71.9906 118.828C72.2346 118.18 72.2771 117.513 72.1181 116.827C71.9591 116.142 72.1407 115.508 72.663 114.927C73.3777 114.893 74.0517 114.967 74.6851 115.148C75.3809 115.315 76.0933 115.413 76.8225 115.441C76.9616 115.474 77.0768 115.546 77.1681 115.657C77.3073 115.69 77.4536 115.755 77.6072 115.85C77.7419 116.148 77.8887 116.639 78.0477 117.325C78.279 118.323 78.5103 119.32 78.7416 120.318C78.9729 121.315 79.149 122.358 79.2701 123.447C79.4345 124.723 79.6541 125.953 79.9287 127.138C80.2034 128.322 80.4541 129.545 80.6809 130.807C81.1868 132.989 81.6928 135.171 82.1987 137.353C82.6902 139.473 83.2201 141.616 83.7884 143.784C83.8462 144.033 83.8729 144.29 83.8684 144.554C83.9262 144.803 84.1087 145.024 84.4159 145.215C84.7276 145.143 84.9314 145.03 85.0272 144.877C85.1085 144.661 85.1971 144.476 85.2928 144.322C85.5323 143.938 85.7717 143.554 86.0112 143.17C86.2506 142.786 86.4517 142.378 86.6143 141.946C86.8538 141.562 87.0237 141.162 87.124 140.744C87.2243 140.327 87.3557 139.902 87.5184 139.47L89.0026 134.396C89.1987 133.825 89.3826 133.059 89.5543 132.1C89.7739 131.063 89.8425 130.226 89.7603 129.588C89.688 129.277 89.8412 128.945 90.2198 128.595C90.8098 128.589 91.3904 128.685 91.9614 128.881C92.5325 129.077 93.1369 129.134 93.7749 129.052C93.9429 129.21 94.0414 129.351 94.0703 129.476C94.1616 129.586 94.2528 129.696 94.3441 129.807C94.167 130.176 94.0138 130.507 93.8846 130.8C93.7554 131.093 93.6646 131.41 93.6122 131.75C93.4974 132.105 93.4138 132.453 93.3614 132.794C93.3569 133.058 93.3284 133.36 93.276 133.701C92.8793 135.106 92.4636 136.714 92.029 138.523C91.6567 140.317 91.2722 141.917 90.8755 143.323C90.7897 143.803 90.7038 144.283 90.618 144.763C90.5321 145.243 90.4151 145.73 90.2669 146.224C90.2145 146.564 90.1309 146.912 90.0161 147.267C89.8869 147.56 89.7338 147.891 89.5567 148.261C89.0543 149.494 88.129 150.037 86.7809 149.89C85.8981 149.766 85.0153 149.642 84.1326 149.519C83.2642 149.457 82.3887 149.364 81.5059 149.241C81.1653 149.188 80.7935 149.143 80.3905 149.105C80.0498 149.053 79.7092 149 79.3685 148.948C78.4379 148.901 77.6459 148.46 76.9926 147.626C76.5797 147.262 76.2603 146.876 76.0344 146.469C75.7941 145.999 75.5538 145.529 75.3134 145.059C75.2845 144.935 75.2244 144.817 75.1332 144.707C75.1043 144.582 75.0754 144.458 75.0464 144.333ZM69.0129 120.011C68.4617 120.467 67.949 120.948 67.4746 121.452C67.0481 121.879 66.7201 122.448 66.4906 123.158C66.3903 123.576 66.2588 124 66.0961 124.432C65.9814 124.787 65.8811 125.205 65.7952 125.684C64.9693 129.489 64.9037 133.315 65.5985 137.162C65.7819 138.236 66.0037 139.334 66.2639 140.456C66.572 141.502 66.8489 142.554 67.0947 143.614C67.1669 143.926 67.3829 144.007 67.7425 143.858C67.9386 143.287 68.1274 142.685 68.3091 142.052C68.553 141.404 68.7586 140.732 68.9258 140.036C69.1788 138.861 69.4391 137.716 69.7065 136.603C70.0364 135.476 70.3278 134.324 70.5808 133.148C70.738 132.127 70.9025 131.136 71.0742 130.176C71.2314 129.154 71.4583 128.149 71.7546 127.161C71.8071 126.82 71.8595 126.479 71.9119 126.139C71.9498 125.736 72.019 125.325 72.1193 124.908C71.6874 124.745 71.3707 124.655 71.1692 124.636C71.077 123.671 70.9058 122.791 70.6556 121.995C70.4053 121.199 69.8577 120.538 69.0129 120.011ZM100.878 137.456C100.94 137.442 100.972 137.435 100.972 137.435C100.957 137.372 100.981 137.334 101.043 137.32L101.137 137.298C101.643 134.947 102.056 132.617 102.375 130.31C102.756 127.988 103.13 125.634 103.497 123.25C103.3 122.967 103.079 122.723 102.834 122.517C102.589 122.311 102.368 122.066 102.171 121.783C101.259 120.681 100.471 119.55 99.8077 118.39C99.1445 117.229 98.6467 115.932 98.3142 114.498L97.577 111.319C97.1569 108.657 97.3557 106.114 98.1735 103.691C98.2069 103.552 98.2476 103.444 98.2955 103.367C98.3434 103.29 98.384 103.182 98.4174 103.043C98.9686 102.587 99.6305 102.466 100.403 102.681C101.128 102.973 101.845 103.234 102.555 103.463C103.251 103.63 103.937 103.898 104.614 104.267C105.2 104.525 105.706 104.868 106.133 105.294C106.546 105.658 106.959 106.023 107.372 106.387C107.54 106.545 107.73 106.797 107.941 107.142C108.326 108.235 108.649 109.343 108.909 110.465C109.217 111.51 109.338 112.599 109.272 113.731C109.202 115.127 109.17 116.547 109.176 117.991C109.168 119.373 109.066 120.776 108.871 122.201C108.891 122.853 108.999 123.321 109.196 123.604C109.484 123.997 109.863 124.073 110.333 123.833C110.568 123.713 110.772 123.6 110.944 123.494C111.117 123.388 111.29 123.283 111.462 123.177C112.109 122.567 112.54 121.876 112.755 121.103C113.018 120.254 113.288 119.436 113.566 118.649C113.863 118.514 114.12 118.487 114.336 118.569C114.614 118.636 114.861 118.71 115.077 118.791C115.37 118.92 115.631 119.057 115.862 119.2C116.092 119.344 116.323 119.488 116.553 119.631C117.014 119.919 117.407 120.057 117.733 120.047C118.247 119.994 118.731 120.243 119.188 120.794C119.092 120.948 119.059 121.087 119.087 121.212C119.102 121.274 119.054 121.351 118.944 121.442C118.628 121.778 118.388 122.162 118.225 122.594C118.111 122.949 117.934 123.319 117.694 123.703C117.498 124.274 117.256 124.79 116.969 125.251C116.538 125.942 115.917 126.381 115.107 126.569C114.373 126.805 113.642 126.909 112.912 126.881C112.231 126.776 111.535 126.609 110.825 126.379C110.177 126.135 109.575 125.947 109.018 125.813C108.942 125.765 108.903 125.741 108.903 125.741C108.683 125.924 108.563 126.116 108.544 126.317C108.573 126.442 108.578 126.605 108.559 126.806C108.364 128.231 108.176 129.687 107.995 131.175C107.8 132.6 107.612 134.056 107.431 135.543C107.26 136.502 107.095 137.493 106.938 138.515C106.843 139.523 106.71 140.506 106.538 141.466C106.433 142.147 106.235 142.85 105.943 143.575C105.862 143.791 105.773 143.975 105.677 144.129C105.658 144.33 105.601 144.508 105.505 144.662C105.102 144.624 104.831 144.588 104.692 144.554C103.919 144.339 103.178 144.117 102.468 143.888C101.743 143.596 100.995 143.342 100.222 143.127C99.435 142.85 98.7031 142.527 98.0264 142.158C97.3351 141.727 96.6679 141.258 96.0245 140.75C94.9538 139.816 94.1637 138.816 93.6541 137.752C93.327 136.908 92.9688 136.071 92.5794 135.242C92.1899 134.412 91.8629 133.568 91.5981 132.71C91.2855 131.928 90.9801 131.178 90.682 130.459C90.4462 129.725 90.1719 128.967 89.8593 128.186C89.5657 127.203 89.3104 126.244 89.0936 125.308C88.8623 124.311 88.631 123.313 88.3997 122.316C88.0817 120.944 87.8644 119.582 87.7479 118.229C87.6937 116.862 87.6707 115.488 87.6789 114.106C87.6499 113.982 87.6522 113.85 87.6856 113.711C87.7046 113.509 87.7308 113.339 87.7643 113.2C87.7643 113.2 87.8361 113.084 87.9798 112.854L88.2603 112.789C88.4474 112.746 88.5793 112.748 88.6561 112.796L89.9084 113.097C90.3548 113.322 90.7939 113.516 91.2258 113.678C91.6577 113.841 92.0584 114.011 92.428 114.188C92.6394 114.533 92.7813 114.861 92.8535 115.173C92.9114 115.423 92.9764 115.703 93.0487 116.015L94.1329 120.691C94.7201 122.657 95.3386 124.616 95.9882 126.568C96.6857 128.442 97.5152 130.32 98.4765 132.199C98.8515 132.966 99.1953 133.741 99.5079 134.522C99.8061 135.241 100.143 135.985 100.518 136.752C100.546 136.876 100.667 137.111 100.878 137.456ZM104.157 114.622C104.397 114.238 104.519 113.914 104.523 113.65C104.513 113.324 104.534 112.99 104.587 112.65C104.639 112.309 104.668 112.007 104.672 111.743C104.677 111.479 104.674 111.184 104.664 110.858C104.654 110.532 104.613 110.213 104.541 109.901C104.454 109.527 104.375 109.184 104.302 108.872C104.23 108.561 104.158 108.249 104.085 107.937C104.013 107.625 103.847 107.335 103.588 107.067C103.441 108.415 103.38 109.71 103.405 110.953C103.493 112.181 103.743 113.404 104.157 114.622ZM132.765 130.95C132.593 131.056 132.49 131.178 132.456 131.317C132.423 131.456 132.358 131.603 132.262 131.756L131.36 135.513C131.164 136.084 130.936 136.663 130.678 137.248C130.405 137.771 130.031 138.285 129.557 138.789C129.356 138.77 129.161 138.782 128.974 138.826C128.787 138.869 128.593 138.881 128.391 138.862C126.904 138.682 125.417 138.501 123.93 138.32C122.505 138.125 121.049 137.937 119.561 137.756C118.012 137.59 116.855 136.708 116.09 135.112C115.85 134.642 115.641 134.165 115.463 133.681C115.27 133.134 115.078 132.587 114.886 132.041C114.255 129.887 113.857 127.746 113.692 125.616C113.526 123.487 113.517 121.321 113.663 119.119C113.744 118.049 113.901 117.027 114.135 116.053C114.417 115.002 114.706 113.983 115.002 112.994C115.151 112.5 115.299 112.006 115.447 111.511C115.595 111.017 115.782 110.547 116.007 110.1C116.93 107.85 118.317 106.181 120.168 105.095C120.388 104.913 120.592 104.8 120.779 104.756C121.014 104.636 121.242 104.485 121.462 104.302C122.892 104.234 124.271 104.374 125.6 104.723C126.977 104.995 128.347 105.235 129.709 105.445C129.953 104.797 129.996 104.13 129.837 103.445C129.678 102.759 129.859 102.125 130.382 101.544C131.096 101.51 131.771 101.584 132.404 101.765C133.1 101.933 133.812 102.03 134.541 102.058C134.68 102.092 134.796 102.163 134.887 102.274C135.026 102.307 135.172 102.372 135.326 102.467C135.461 102.765 135.607 103.256 135.767 103.942C135.998 104.94 136.229 105.937 136.46 106.935C136.692 107.932 136.868 108.975 136.989 110.064C137.153 111.34 137.373 112.57 137.648 113.755C137.922 114.939 138.173 116.162 138.4 117.424C138.906 119.606 139.412 121.788 139.918 123.97C140.409 126.09 140.939 128.234 141.507 130.401C141.565 130.651 141.592 130.907 141.587 131.171C141.645 131.42 141.828 131.641 142.135 131.832C142.446 131.76 142.65 131.647 142.746 131.494C142.827 131.278 142.916 131.093 143.012 130.939C143.251 130.555 143.491 130.171 143.73 129.787C143.969 129.403 144.17 128.995 144.333 128.563C144.573 128.179 144.742 127.779 144.843 127.361C144.943 126.944 145.075 126.519 145.237 126.087L146.721 121.013C146.917 120.442 147.101 119.676 147.273 118.717C147.493 117.681 147.561 116.843 147.479 116.205C147.407 115.894 147.56 115.563 147.939 115.212C148.529 115.207 149.109 115.302 149.68 115.498C150.251 115.694 150.856 115.751 151.494 115.669C151.662 115.827 151.76 115.968 151.789 116.093C151.88 116.203 151.972 116.314 152.063 116.424C151.886 116.793 151.733 117.124 151.603 117.417C151.474 117.71 151.383 118.027 151.331 118.367C151.216 118.722 151.133 119.07 151.08 119.411C151.076 119.675 151.047 119.977 150.995 120.318C150.598 121.724 150.182 123.331 149.748 125.14C149.376 126.934 148.991 128.535 148.594 129.941C148.508 130.42 148.423 130.9 148.337 131.38C148.251 131.86 148.134 132.347 147.986 132.841C147.933 133.182 147.85 133.529 147.735 133.885C147.606 134.177 147.453 134.508 147.275 134.878C146.773 136.111 145.848 136.654 144.5 136.507C143.617 136.383 142.734 136.259 141.851 136.136C140.983 136.074 140.107 135.982 139.225 135.858C138.884 135.805 138.512 135.76 138.109 135.722C137.769 135.67 137.428 135.617 137.087 135.565C136.157 135.518 135.365 135.077 134.711 134.243C134.299 133.879 133.979 133.493 133.753 133.086C133.513 132.616 133.273 132.146 133.032 131.676C133.003 131.552 132.943 131.434 132.852 131.324C132.823 131.199 132.794 131.075 132.765 130.95ZM126.732 106.628C126.181 107.084 125.668 107.565 125.193 108.069C124.767 108.496 124.439 109.065 124.209 109.775C124.109 110.193 123.978 110.617 123.815 111.049C123.7 111.404 123.6 111.822 123.514 112.302C122.688 116.106 122.623 119.932 123.317 123.779C123.501 124.853 123.722 125.951 123.983 127.073C124.291 128.119 124.568 129.172 124.813 130.231C124.886 130.543 125.102 130.625 125.461 130.475C125.657 129.904 125.846 129.302 126.028 128.669C126.272 128.021 126.477 127.349 126.645 126.653C126.898 125.478 127.158 124.333 127.425 123.22C127.755 122.093 128.047 120.941 128.3 119.766C128.457 118.744 128.621 117.753 128.793 116.793C128.95 115.771 129.177 114.766 129.473 113.778C129.526 113.437 129.578 113.096 129.631 112.756C129.669 112.353 129.738 111.943 129.838 111.525C129.406 111.362 129.089 111.272 128.888 111.253C128.796 110.289 128.625 109.408 128.374 108.612C128.124 107.816 127.577 107.155 126.732 106.628ZM147.001 99.5634C147.471 99.323 147.876 99.2291 148.217 99.2815C148.62 99.3194 148.999 99.3958 149.354 99.5105C150.079 99.8024 150.782 100.001 151.463 100.106C151.803 100.158 152.089 100.256 152.319 100.4C152.598 100.467 152.814 100.548 152.967 100.644C153.318 101.022 153.536 101.399 153.623 101.773C153.772 102.132 153.852 102.475 153.862 102.801C154.022 104.341 154.371 105.705 154.909 106.895C154.953 107.082 155.097 107.278 155.342 107.484C155.776 105.675 156.302 103.977 156.919 102.388C157.599 100.785 158.31 99.175 159.051 97.5577C159.382 97.2839 159.756 97.1972 160.174 97.2975L161.426 97.5984C161.997 97.7945 162.561 97.9594 163.117 98.0931C163.674 98.2269 164.238 98.3918 164.809 98.5879C165.644 98.7885 166.352 99.1499 166.933 99.6722C167.514 100.194 167.689 100.811 167.46 101.521C166.654 101.445 165.889 101.261 165.164 100.969C164.425 100.615 163.628 100.438 162.775 100.439C161.903 101.495 161.215 102.64 160.713 103.874C159.679 106.216 159.111 108.581 159.008 110.97C158.856 112.582 158.704 114.194 158.552 115.806C158.463 117.404 158.342 119.008 158.19 120.62C158.129 121.489 158.221 122.453 158.467 123.512C158.808 124.419 158.994 125.361 159.024 126.34C159.054 127.318 159.076 128.266 159.091 129.182C159.082 129.71 159.037 130.081 158.956 130.297C158.875 130.513 158.705 130.914 158.446 131.5C157.948 131.615 157.451 131.599 156.957 131.451C156.525 131.288 156.076 131.195 155.611 131.171C154.603 131.077 153.637 130.874 152.711 130.563C151.885 129.835 151.241 128.9 150.779 127.759C150.111 126.008 149.55 124.299 149.097 122.63C148.63 120.899 148.218 119.122 147.861 117.299C147.649 116.1 147.506 114.918 147.433 113.752C147.346 112.525 147.265 111.328 147.192 110.162C147.09 108.872 147.002 107.644 146.929 106.478C146.904 105.236 146.871 103.962 146.832 102.658C146.87 102.255 146.876 101.859 146.852 101.47C146.828 101.082 146.834 100.686 146.872 100.283C146.843 100.158 146.853 100.058 146.901 99.9808C146.934 99.8416 146.968 99.7025 147.001 99.5634ZM175.331 74.2708C175.297 74.41 175.302 74.5731 175.346 74.7601C175.375 74.8848 175.372 75.0167 175.339 75.1559C175.105 76.1299 174.94 77.1207 174.846 78.1281C174.736 79.0733 174.627 80.0184 174.517 80.9635C174.427 81.7071 174.361 82.4124 174.318 83.0792C174.276 83.746 174.178 84.4585 174.025 85.2166C173.94 85.6963 173.823 86.1834 173.674 86.6776C173.588 87.1574 173.395 87.5965 173.093 87.995C172.532 88.1251 171.973 88.1233 171.416 87.9895C170.922 87.8413 170.411 87.7627 169.883 87.7537C169.543 87.7013 169.241 87.6728 168.977 87.6683C168.698 87.6014 168.43 87.4338 168.17 87.1654C168.14 86.1869 168.08 85.2155 167.987 84.2514C167.958 83.2729 167.959 82.2871 167.991 81.2941C167.933 80.1908 167.85 79.126 167.744 78.0995C167.699 77.0586 167.617 75.9938 167.496 74.905C167.442 74.3918 167.432 74.0656 167.466 73.9264C167.485 73.7249 167.623 73.3314 167.882 72.7459C168.644 72.6348 169.419 72.7179 170.206 72.9954C170.561 73.1101 170.885 73.2321 171.178 73.3613C171.471 73.4905 171.788 73.5813 172.128 73.6338C172.267 73.6672 172.406 73.7006 172.546 73.7341C172.685 73.7675 172.817 73.7698 172.941 73.7408C173.392 73.702 173.795 73.74 174.15 73.8547C174.505 73.9695 174.899 74.1082 175.331 74.2708ZM168.696 94.5331C169.118 94.3695 169.437 94.3284 169.653 94.4098C169.931 94.4766 170.241 94.5363 170.581 94.5887C170.86 94.6556 171.138 94.7224 171.416 94.7893C171.68 94.7938 171.982 94.8223 172.323 94.8747C172.51 94.8313 172.711 94.8503 172.927 94.9316C173.143 95.013 173.359 95.0943 173.575 95.1756C173.648 95.4873 173.713 95.7679 173.77 96.0173C173.876 96.1899 173.927 96.4081 173.922 96.6719C173.975 97.1851 174.029 97.6984 174.082 98.2116C174.198 98.7104 174.251 99.2236 174.242 99.7513C174.32 100.653 174.429 101.548 174.569 102.435C174.771 103.308 174.973 104.181 175.176 105.053C175.687 107.826 176.222 110.559 176.782 113.255C177.403 115.935 178.001 118.655 178.575 121.412C178.647 121.724 178.681 122.012 178.676 122.276C178.734 122.525 178.823 122.767 178.943 123.002C178.972 123.127 179.001 123.252 179.03 123.376C179.121 123.487 179.181 123.604 179.21 123.729C179.728 123.412 180.138 123.054 180.44 122.655C180.727 122.195 180.976 121.71 181.186 121.201C181.378 120.894 181.507 120.601 181.574 120.323C181.703 120.03 181.825 119.706 181.94 119.351C182.136 118.78 182.339 118.24 182.55 117.731C182.746 117.16 182.942 116.589 183.138 116.018C183.751 114.694 184.303 113.252 184.796 111.692C185.288 110.132 185.625 108.609 185.806 107.122C185.872 106.844 185.947 106.596 186.028 106.38C186.585 106.514 187.134 106.617 187.676 106.688C188.28 106.745 188.861 106.84 189.418 106.974C189.571 107.07 189.631 107.187 189.598 107.327C189.55 107.403 189.509 107.511 189.476 107.65C189.323 108.409 189.115 109.212 188.852 110.062C188.652 110.897 188.475 111.693 188.322 112.451C188.141 113.084 187.959 113.718 187.778 114.351C187.596 114.985 187.421 115.649 187.254 116.345C186.943 117.271 186.664 118.19 186.415 119.102C186.152 119.951 185.897 120.832 185.648 121.743C185.419 122.453 185.151 123.14 184.844 123.802C184.524 124.402 183.994 124.952 183.256 125.451C183.146 125.543 182.793 125.723 182.199 125.992C181.432 126.367 180.645 126.517 179.839 126.441C178.894 126.331 177.918 126.229 176.91 126.134C175.965 126.025 175.02 125.916 174.075 125.806C172.588 125.626 171.393 125.147 170.49 124.371C169.573 123.532 168.869 122.48 168.378 121.214C167.743 119.325 167.381 117.339 167.293 115.258C167.123 113.392 167.03 111.574 167.014 109.804C166.983 107.971 167.015 106.124 167.109 104.263C167.15 102.742 167.293 101.231 167.536 99.7294C167.779 98.2277 168.084 96.7116 168.452 95.1809C168.485 95.0418 168.526 94.9338 168.574 94.857C168.622 94.7802 168.663 94.6722 168.696 94.5331ZM205.096 114.179C204.924 114.285 204.821 114.407 204.787 114.546C204.754 114.685 204.689 114.832 204.594 114.985L203.691 118.742C203.495 119.313 203.267 119.892 203.009 120.477C202.736 121 202.363 121.514 201.888 122.018C201.687 121.999 201.492 122.011 201.305 122.055C201.118 122.098 200.924 122.11 200.723 122.091C199.235 121.911 197.748 121.73 196.261 121.549C194.836 121.354 193.38 121.166 191.893 120.985C190.343 120.819 189.186 119.938 188.422 118.341C188.181 117.871 187.972 117.394 187.794 116.91C187.602 116.363 187.409 115.816 187.217 115.27C186.586 113.116 186.188 110.975 186.023 108.845C185.857 106.716 185.848 104.55 185.994 102.348C186.075 101.278 186.232 100.256 186.466 99.282C186.748 98.2312 187.037 97.2115 187.334 96.223C187.482 95.7288 187.63 95.2346 187.778 94.7403C187.926 94.2461 188.113 93.7758 188.338 93.3294C189.261 91.0787 190.648 89.4103 192.499 88.3242C192.719 88.1417 192.923 88.0288 193.11 87.9854C193.345 87.8652 193.573 87.7139 193.793 87.5314C195.223 87.4627 196.602 87.6028 197.931 87.9516C199.308 88.2236 200.678 88.4644 202.041 88.6741C202.285 88.0262 202.327 87.3594 202.168 86.6736C202.009 85.9878 202.191 85.3544 202.713 84.7734C203.428 84.7391 204.102 84.8127 204.735 84.9944C205.431 85.1615 206.143 85.2591 206.872 85.2872C207.012 85.3206 207.127 85.3924 207.218 85.5027C207.357 85.5361 207.504 85.6007 207.657 85.6965C207.792 85.9938 207.939 86.4853 208.098 87.1711C208.329 88.1687 208.56 89.1662 208.792 90.1637C209.023 91.1613 209.199 92.2044 209.32 93.2932C209.484 94.5691 209.704 95.7993 209.979 96.9838C210.253 98.1684 210.504 99.3914 210.731 100.653C211.237 102.835 211.743 105.017 212.249 107.199C212.74 109.319 213.27 111.463 213.838 113.63C213.896 113.88 213.923 114.136 213.918 114.4C213.976 114.649 214.159 114.87 214.466 115.061C214.778 114.989 214.981 114.876 215.077 114.723C215.158 114.507 215.247 114.322 215.343 114.168C215.582 113.784 215.822 113.4 216.061 113.016C216.301 112.632 216.502 112.224 216.664 111.792C216.904 111.408 217.074 111.008 217.174 110.59C217.274 110.173 217.406 109.748 217.568 109.316L219.053 104.242C219.249 103.671 219.433 102.906 219.604 101.946C219.824 100.91 219.893 100.072 219.81 99.4345C219.738 99.1228 219.891 98.7916 220.27 98.441C220.86 98.4356 221.44 98.531 222.011 98.727C222.582 98.9231 223.187 98.9801 223.825 98.8978C223.993 99.056 224.091 99.1974 224.12 99.3221C224.212 99.4323 224.303 99.5425 224.394 99.6528C224.217 100.022 224.064 100.353 223.935 100.646C223.805 100.939 223.715 101.256 223.662 101.596C223.547 101.951 223.464 102.299 223.411 102.64C223.407 102.904 223.378 103.206 223.326 103.547C222.929 104.953 222.514 106.56 222.079 108.369C221.707 110.163 221.322 111.764 220.925 113.17C220.84 113.649 220.754 114.129 220.668 114.609C220.582 115.089 220.465 115.576 220.317 116.07C220.264 116.411 220.181 116.758 220.066 117.114C219.937 117.406 219.784 117.737 219.607 118.107C219.104 119.34 218.179 119.883 216.831 119.736C215.948 119.612 215.065 119.488 214.183 119.365C213.314 119.303 212.439 119.211 211.556 119.087C211.215 119.034 210.843 118.989 210.44 118.951C210.1 118.899 209.759 118.846 209.419 118.794C208.488 118.747 207.696 118.306 207.043 117.472C206.63 117.108 206.31 116.723 206.084 116.315C205.844 115.845 205.604 115.375 205.363 114.905C205.334 114.781 205.274 114.663 205.183 114.553C205.154 114.428 205.125 114.304 205.096 114.179ZM199.063 89.8572C198.512 90.3135 197.999 90.7938 197.525 91.2979C197.098 91.7253 196.77 92.2941 196.541 93.0043C196.44 93.4217 196.309 93.8464 196.146 94.2783C196.031 94.6334 195.931 95.0508 195.845 95.5306C195.019 99.3355 194.954 103.161 195.648 107.008C195.832 108.082 196.054 109.18 196.314 110.303C196.622 111.348 196.899 112.401 197.145 113.46C197.217 113.772 197.433 113.854 197.792 113.704C197.989 113.133 198.177 112.531 198.359 111.898C198.603 111.25 198.809 110.578 198.976 109.882C199.229 108.707 199.489 107.563 199.757 106.449C200.086 105.322 200.378 104.17 200.631 102.995C200.788 101.973 200.952 100.982 201.124 100.022C201.281 99.0004 201.508 97.9952 201.805 97.0067C201.857 96.6661 201.909 96.3254 201.962 95.9848C202 95.5818 202.069 95.1716 202.169 94.7541C201.737 94.5915 201.421 94.5007 201.219 94.4817C201.127 93.5176 200.956 92.6375 200.706 91.8415C200.455 91.0454 199.908 90.384 199.063 89.8572ZM249.476 53.3346C250.19 53.3003 250.826 53.35 251.382 53.4837C251.939 53.6175 252.503 53.7824 253.074 53.9785C253.784 54.208 254.502 54.4687 255.226 54.7605C255.936 54.99 256.678 55.2123 257.45 55.4274C258.3 55.6904 258.909 55.9104 259.279 56.0875C259.648 56.2646 259.931 56.4946 260.128 56.7774C260.325 57.0602 260.482 57.451 260.597 57.9498C260.713 58.4485 260.958 59.0815 261.333 59.8486C261.828 60.8507 262.192 61.8505 262.423 62.848C262.702 63.7687 262.965 64.759 263.21 65.8189C263.413 66.6918 263.584 67.5718 263.724 68.4591C263.926 69.332 264.098 70.2121 264.238 71.0994C264.334 71.7996 264.424 72.4687 264.506 73.1066C264.65 73.7301 264.74 74.3992 264.774 75.1139C264.823 75.891 264.872 76.668 264.921 77.4451C265.032 78.2077 265.119 79.0087 265.182 79.8481C265.241 80.9514 265.331 82.0474 265.452 83.1362C265.573 84.225 265.663 85.321 265.721 86.4243C265.737 87.3405 265.79 88.2806 265.883 89.2447C265.96 90.1465 266.038 91.0482 266.116 91.95C266.136 92.6024 266.175 93.4802 266.234 94.5834C266.355 95.6722 266.428 96.8378 266.453 98.0802C266.526 99.2458 266.599 100.411 266.673 101.577C266.731 102.68 266.802 103.551 266.884 104.189L267.168 107.966C267.232 108.806 267.362 109.794 267.56 110.93C267.835 112.115 267.718 113.029 267.21 113.672C267.086 113.701 267.026 113.584 267.03 113.32C267.097 113.041 267.054 112.854 266.9 112.759C266.684 112.677 266.521 112.682 266.411 112.773C266.301 112.865 266.19 112.956 266.08 113.047C266.047 113.186 265.975 113.302 265.865 113.393C265.769 113.546 265.613 113.583 265.397 113.501C264.174 113.325 262.967 113.079 261.777 112.764C261.244 112.165 260.773 111.551 260.365 110.923C259.956 110.295 259.517 109.675 259.046 109.061C258.93 108.562 258.822 108.095 258.721 107.658C258.605 107.16 258.521 106.654 258.467 106.14C258.371 105.44 258.274 104.74 258.177 104.039C258.128 103.262 258.087 102.517 258.053 101.802C258.033 101.149 258.001 100.303 257.956 99.2619C257.898 98.1587 257.839 97.0554 257.78 95.9522C257.769 94.7721 257.711 93.6689 257.604 92.6424C257.545 91.5392 257.513 90.6925 257.508 90.1025C257.478 89.1239 257.424 88.1838 257.347 87.282C257.317 86.3035 257.256 85.3321 257.164 84.368C257.11 83.0009 257.031 81.6723 256.929 80.382C256.875 79.0149 256.79 77.655 256.673 76.3024C256.644 75.3238 256.583 74.3525 256.49 73.3884C256.461 72.4098 256.4 71.4385 256.307 70.4744C256.205 69.1841 256.072 67.901 255.908 66.6252C255.743 65.3494 255.517 64.088 255.227 62.8411C255.145 62.2032 255.008 61.6109 254.815 61.0642C254.671 60.4408 254.495 59.8245 254.288 59.2155C254.259 59.0908 254.199 58.9734 254.108 58.8631C254.002 58.6905 253.935 58.5419 253.906 58.4172C253.489 58.3169 253.146 58.3964 252.877 58.6557C251.727 59.6451 250.706 60.7687 249.816 62.0264C249.035 63.1929 248.3 64.4145 247.61 65.6912C246.969 66.8911 246.334 68.1222 245.707 69.3845C245.324 69.9989 244.98 70.6373 244.673 71.2996C244.352 71.8995 244.077 72.5546 243.848 73.2648C243.245 74.9156 243.139 76.5827 243.529 78.266C243.693 78.688 243.825 79.1172 243.926 79.5536C244.013 79.9277 244.092 80.2706 244.165 80.5823C244.515 80.9609 244.868 81.2076 245.223 81.3223C245.564 81.3748 245.936 81.4199 246.339 81.4579C246.181 81.626 246.078 81.7484 246.03 81.8252C245.982 81.902 245.903 81.986 245.793 82.0773C245.294 82.1929 244.912 82.2485 244.649 82.244C244.308 82.1916 243.936 82.1464 243.533 82.1084C243.193 82.056 242.852 82.0036 242.511 81.9512C241.83 81.8463 241.261 81.5183 240.805 80.9672C239.834 79.6154 239.152 78.2298 238.757 76.8103C238.348 75.3284 238.313 73.7598 238.651 72.1045C238.833 71.4711 238.983 70.845 239.103 70.226C239.284 69.5926 239.504 68.9832 239.763 68.3977C240.347 66.9484 240.906 65.5375 241.442 64.165C242.04 62.778 242.663 61.3527 243.309 59.8889C243.792 58.8571 244.359 57.9043 245.011 57.0305C245.648 56.0945 246.446 55.2853 247.405 54.6032C247.735 54.3294 248.08 54.118 248.44 53.9689C248.848 53.743 249.193 53.5316 249.476 53.3346ZM291.107 101.43C290.234 101.633 289.418 101.657 288.66 101.505C287.979 101.4 287.276 101.202 286.551 100.91C285.903 100.666 285.27 100.484 284.651 100.365C284.018 100.183 283.353 100.009 282.657 99.8416C282.437 100.024 282.324 100.247 282.32 100.511C282.301 100.713 282.289 100.945 282.285 101.209C282.853 103.377 283.236 105.456 283.435 107.446C283.648 109.499 283.789 111.241 283.858 112.67C284.003 114.147 284.117 115.205 284.199 115.843C284.296 116.543 284.481 116.632 284.754 116.108C284.711 116.775 284.765 117.289 284.914 117.648C285.125 117.993 285.248 118.523 285.282 119.238C285.326 119.425 285.338 119.619 285.319 119.821C285.3 120.022 285.257 120.262 285.19 120.54C284.989 120.521 284.631 120.539 284.118 120.592C283.619 120.708 283.082 120.799 282.507 120.867C281.931 120.935 281.387 120.995 280.873 121.049C280.375 121.164 280.024 121.213 279.823 121.194C279.761 121.208 279.614 121.143 279.384 121L279.038 120.784C278.74 120.065 278.435 119.315 278.122 118.533C277.824 117.814 277.526 117.095 277.228 116.375C277.093 116.078 276.982 115.742 276.896 115.368C276.809 114.994 276.722 114.62 276.635 114.246L275.009 107.232C274.893 106.733 274.816 106.259 274.777 105.808C274.738 105.357 274.661 104.882 274.546 104.383C274.536 104.057 274.502 103.769 274.444 103.52C274.372 103.208 274.299 102.896 274.227 102.585C273.938 101.338 273.75 100.1 273.662 98.8724C273.512 97.6589 273.355 96.4142 273.19 95.1384C272.953 92.697 272.792 90.3034 272.708 87.9578C272.61 85.5498 272.48 83.149 272.319 80.7555C272.236 79.2637 272.199 77.827 272.207 76.4455C272.201 75.0016 272.187 73.5265 272.166 72.0203C272.185 71.8188 272.211 71.6485 272.245 71.5093C272.264 71.3078 272.314 71.0991 272.395 70.8832C272.534 70.9166 272.635 70.9261 272.698 70.9116C272.76 70.8972 272.861 70.9067 273 70.9401C273.556 71.0738 274.113 71.2076 274.67 71.3413C275.226 71.4751 275.783 71.6088 276.339 71.7425C276.339 71.7425 276.431 71.8528 276.613 72.0732C276.839 72.4808 276.971 72.91 277.01 73.3608C277.097 73.7349 277.167 74.1786 277.22 74.6918C277.211 75.2195 277.233 75.7399 277.287 76.2531C277.34 76.7664 277.362 77.2868 277.353 77.8145C277.382 77.9392 277.38 78.0711 277.346 78.2103C277.361 78.2726 277.382 78.3661 277.411 78.4908C277.489 79.3926 277.591 80.2559 277.716 81.0809C277.89 81.829 278.008 82.6228 278.071 83.4622C278.149 84.364 278.251 85.2273 278.376 86.0523C278.487 86.8149 278.582 87.6471 278.659 88.5488L278.811 89.2035C279.036 88.7571 279.136 88.3397 279.112 87.9511C279.136 87.4858 279.159 87.0205 279.183 86.5551C279.281 84.43 279.567 82.2614 280.039 80.0495C280.192 79.2914 280.352 78.5645 280.519 77.8688C280.734 77.0962 280.918 76.3309 281.071 75.5728C281.286 74.8003 281.547 74.0829 281.853 73.4206C282.145 72.6959 282.475 71.9952 282.844 71.3184C283.083 70.9344 283.33 70.5816 283.584 70.2599C283.9 69.9238 284.161 69.6333 284.367 69.3885C284.76 69.1002 285.096 68.9896 285.374 69.0564C285.638 69.0609 285.909 69.0966 286.187 69.1635C287.161 69.3976 288.181 69.6867 289.246 70.031C289.957 70.2605 290.585 70.706 291.133 71.3674C292.315 73.0643 292.996 75.0088 293.175 77.2008C293.233 77.4502 293.26 77.7068 293.255 77.9707C293.236 78.1722 293.256 78.3976 293.314 78.647C293.603 79.8939 293.76 81.1386 293.785 82.381C293.873 83.6089 293.999 84.8608 294.163 86.1366C294.198 86.8513 294.239 87.5972 294.288 88.3743C294.385 89.0746 294.45 89.7821 294.484 90.4968C294.562 91.3985 294.632 92.2691 294.696 93.1085C294.759 93.9479 294.721 94.7779 294.583 95.5983C294.498 96.9319 294.176 98.0908 293.615 99.0747C293.055 100.059 292.219 100.844 291.107 101.43ZM286.961 72.926C286.774 72.9693 286.657 73.0294 286.609 73.1062C286.226 73.7206 285.843 74.335 285.459 74.9495C285.076 75.5639 284.808 76.2501 284.656 77.0082C284.259 78.4141 283.893 79.8128 283.559 81.2043C283.287 82.5814 283.092 84.0063 282.973 85.4791C282.774 87.1678 282.636 88.8421 282.561 90.502C282.549 92.1473 282.512 93.8311 282.451 95.5533L282.582 96.1144C282.922 96.1668 283.201 96.2337 283.416 96.315C283.68 96.3196 283.951 96.3553 284.23 96.4221C284.494 96.4267 284.841 96.5102 285.273 96.6729C286.548 95.6546 287.291 94.4642 287.5 93.1016C287.653 92.3435 287.738 91.4368 287.756 90.3814C287.803 89.4508 287.819 88.5273 287.804 87.6111C287.774 86.6326 287.783 85.6779 287.83 84.7473C287.89 83.0251 287.865 81.3558 287.753 79.7393C287.688 78.046 287.562 76.3672 287.373 74.7028C287.363 74.3766 287.329 74.0889 287.272 73.8395C287.262 73.5133 287.158 73.2088 286.961 72.926ZM297.93 81.4199C298.117 81.3766 298.304 81.3332 298.491 81.2898C298.601 81.1986 298.743 81.1001 298.915 80.9944C299.41 81.1426 299.873 81.298 300.304 81.4606C300.736 81.6233 301.231 81.7715 301.787 81.9052C301.859 82.217 302.021 82.7708 302.271 83.5669C302.569 84.2861 302.882 85.0677 303.209 85.9116C303.536 86.7556 303.856 87.5683 304.168 88.3499C304.467 89.0692 304.714 89.5702 304.911 89.853C305.195 90.5099 305.44 91.1429 305.647 91.7519C305.916 92.3464 306.272 92.8881 306.714 93.3769C306.992 93.4438 307.304 93.3715 307.649 93.1601C308.876 92.2186 309.465 90.9324 309.415 89.3015C309.352 88.4621 309.296 87.6538 309.247 86.8768C309.246 86.0229 309.027 85.2196 308.59 84.467C308.513 84.4191 308.453 84.3016 308.409 84.1146C308.24 83.1026 307.923 82.1579 307.457 81.2805C307.053 80.3887 306.642 79.4657 306.223 78.5115C305.728 77.5095 305.351 76.4473 305.09 75.3251C304.83 74.2029 304.601 73.0734 304.403 71.9367C304.426 70.6175 304.556 69.339 304.795 68.1011C305.096 66.8488 305.574 65.6538 306.23 64.5163C307.284 62.8266 308.662 61.6859 310.364 61.0941C311.064 60.9974 311.724 61.0087 312.343 61.128C312.962 61.2473 313.557 61.405 314.128 61.6011C314.498 61.7782 314.898 61.9481 315.33 62.1107C315.748 62.211 316.172 62.3425 316.604 62.5051C316.882 62.572 317.144 62.7084 317.389 62.9145C317.682 63.0437 317.943 63.1801 318.174 63.3238C318.784 63.9708 319.036 64.6349 318.931 65.3162C318.864 65.5945 318.798 65.8728 318.731 66.151C318.726 66.4149 318.628 66.7004 318.437 67.0076C318.081 66.8929 317.695 66.7853 317.278 66.685C316.86 66.5847 316.474 66.4772 316.119 66.3624C315.965 66.2666 315.843 66.1636 315.752 66.0534C315.555 65.7706 315.458 65.4973 315.463 65.2334C315.453 64.9072 315.412 64.5883 315.34 64.2765C315.325 64.2142 315.212 64.0104 315.001 63.6653C314.325 64.1505 313.795 64.7003 313.412 65.3147C313.029 65.9291 312.684 66.5675 312.378 67.2298C312.009 67.9065 311.78 68.6167 311.69 69.3604C311.662 70.0895 311.602 70.8259 311.512 71.5696C311.447 73.5556 311.804 75.3781 312.583 77.037C312.688 77.2096 312.777 77.4518 312.85 77.7635C313.023 78.5117 313.283 79.207 313.629 79.8494C313.975 80.4918 314.321 81.1343 314.667 81.7767C315.104 82.5294 315.479 83.2965 315.792 84.0781C316.167 84.8452 316.511 85.6196 316.823 86.4012C316.915 86.5114 316.982 86.6601 317.025 86.8471C317.054 86.9718 317.121 87.1204 317.227 87.293C317.539 87.2207 317.719 87.1462 317.767 87.0694C318.581 85.7638 319.356 84.4342 320.094 83.0807C320.817 81.6648 321.432 80.2083 321.939 78.7111C322.053 78.356 322.185 77.9313 322.333 77.4371C322.543 76.9284 322.675 76.5037 322.727 76.163C322.942 75.3905 323.27 74.8217 323.711 74.4567C323.99 74.5236 324.244 74.6288 324.474 74.7725C324.753 74.8394 325.007 74.9446 325.237 75.0883C325.516 75.1552 325.739 75.2677 325.907 75.4258C326.123 75.5071 326.37 75.5812 326.648 75.6481C326.864 75.7294 327.111 75.8035 327.39 75.8704C327.654 75.8749 327.891 76.0497 328.103 76.3949C327.619 77.4268 327.071 78.605 326.459 79.9296C325.894 81.1774 325.339 82.3245 324.793 83.3708C324.295 84.3403 323.79 85.2786 323.277 86.1858C322.751 87.0306 322.193 87.8827 321.604 88.742C321.11 89.4476 320.586 90.1605 320.03 90.8807C319.522 91.524 318.976 92.1434 318.391 92.7388C318.123 92.9981 317.855 93.2574 317.586 93.5168C317.38 93.7616 317.157 94.0761 316.918 94.4601C316.631 94.9209 316.377 95.2425 316.156 95.425C314.494 97.3216 312.511 97.9784 310.208 97.3956C309.094 97.1281 308.012 96.8534 306.962 96.5715C305.896 96.2272 304.838 95.9141 303.787 95.6322C302.228 95.1397 301.275 94.1453 300.928 92.649C300.798 92.0879 300.636 91.534 300.444 90.9874C300.189 90.4551 299.997 89.9085 299.867 89.3474C299.794 89.0356 299.64 88.5129 299.404 87.7792C299.106 87.06 298.832 86.3024 298.582 85.5063C298.317 84.6479 298.129 83.8374 298.018 83.0748C297.845 82.3267 297.815 81.775 297.93 81.4199ZM338.724 54.3213C339.036 54.249 339.192 54.2129 339.192 54.2129C339.331 54.2463 339.463 54.2486 339.588 54.2197C339.775 54.1763 339.945 54.2025 340.099 54.2983C340.67 54.4944 341.56 54.6494 342.769 54.7632C343.963 54.8148 344.863 54.869 345.467 54.9259C345.794 55.7699 346.013 56.5731 346.124 57.3358C346.221 58.036 346.325 58.7674 346.436 59.5301C346.456 60.1824 346.502 60.6645 346.574 60.9762C346.695 62.065 346.855 63.1777 347.053 64.3144C347.298 65.3743 347.482 66.4487 347.603 67.5374C347.71 68.5639 347.878 69.5759 348.11 70.5734C348.327 71.5086 348.551 72.475 348.782 73.4725C348.893 74.2351 349.035 74.9905 349.209 75.7387C349.445 76.4724 349.587 77.2277 349.636 78.0048C349.66 78.3933 349.656 78.6572 349.622 78.7963C349.651 78.921 349.642 79.0218 349.594 79.0986C349.608 79.1609 349.63 79.2544 349.659 79.3791C349.688 79.5038 349.746 79.7532 349.832 80.1273C349.861 80.252 349.89 80.3767 349.919 80.5013C349.996 80.5492 350.049 80.6355 350.078 80.7602C350.404 80.7503 350.615 80.6685 350.71 80.5149C350.792 80.299 350.873 80.083 350.954 79.8671C351.357 79.0512 351.711 78.312 352.017 77.6497C352.323 76.9874 352.567 76.3396 352.749 75.7062C352.993 75.0583 353.199 74.3866 353.366 73.6908C353.533 72.9951 353.671 72.1746 353.781 71.2295C353.852 70.6874 353.931 70.1764 354.016 69.6966C354.165 69.2024 354.274 68.6842 354.346 68.1421C354.35 67.8782 354.448 67.5927 354.64 67.2855C355.168 67.2945 355.679 67.3732 356.173 67.5213C356.653 67.6072 357.3 67.8512 358.116 68.2533C358.16 68.4403 358.133 68.6106 358.038 68.7642C357.473 70.012 357.107 71.4107 356.941 72.9604C356.822 73.5793 356.669 74.3374 356.483 75.2346C356.297 76.1318 356.144 76.8899 356.025 77.5089C355.953 78.051 355.82 78.6076 355.624 79.1786C355.346 79.9656 355.076 80.7838 354.813 81.6332C354.598 82.4057 354.321 83.1927 353.981 83.9941C353.804 84.3637 353.595 84.7405 353.356 85.1245C353.164 85.4317 352.98 85.7701 352.803 86.1396C352.333 86.38 351.873 86.5196 351.422 86.5584C351.033 86.5828 350.599 86.5521 350.119 86.4662C349.299 86.328 348.479 86.1897 347.658 86.0514C346.838 85.9132 346.048 85.7677 345.29 85.615C344.177 85.3475 343.237 84.9743 342.469 84.4954C341.724 83.5512 341.229 82.5491 340.983 81.4892C340.8 80.4149 340.547 79.3238 340.224 78.216L339.873 79.6771C339.816 80.2816 339.728 80.8933 339.609 81.5122C339.552 82.1167 339.495 82.7212 339.438 83.3257C339.281 84.3476 339.008 85.2977 338.621 86.1759C338.362 86.7615 338.097 87.3158 337.824 87.8389C337.613 88.3476 337.379 88.8947 337.12 89.4802C336.814 90.1425 336.481 90.5482 336.121 90.6973C335.839 90.8943 335.357 90.9404 334.675 90.8355C334.133 90.7641 333.591 90.6928 333.049 90.6214C332.507 90.55 331.965 90.4786 331.422 90.4072C331.144 90.3403 330.904 90.2974 330.703 90.2784C330.487 90.1971 330.24 90.123 329.961 90.0561C328.954 89.9612 328.121 89.6287 327.463 89.0585C326.854 88.4116 326.378 87.635 326.036 86.7287C325.454 85.3525 325.012 84.0098 324.708 82.7006C324.39 81.329 324.072 79.9574 323.754 78.5857C323.556 77.4491 323.358 76.3124 323.161 75.1757C322.963 74.039 322.803 72.9263 322.682 71.8375C322.567 71.3387 322.497 70.895 322.472 70.5065C322.433 70.0556 322.418 69.5664 322.427 69.0387L322.139 61.4189C322.076 60.5795 322.18 59.8982 322.453 59.3751C322.842 59.3507 323.3 59.343 323.828 59.3521C324.341 59.2988 324.893 59.2694 325.483 59.264C326.073 59.2586 326.6 59.2676 327.066 59.2911C327.593 59.3002 327.996 59.3381 328.275 59.405C328.534 59.6734 328.692 59.9322 328.75 60.1816C328.794 60.3687 328.813 60.5941 328.809 60.8579C328.833 61.2465 328.857 61.635 328.882 62.0235C328.968 62.3976 329.017 62.7478 329.027 63.0739C329.113 63.448 329.176 63.8605 329.215 64.3114C329.302 64.6854 329.357 65.0668 329.382 65.4553C329.392 65.7815 329.426 66.0693 329.483 66.3186C329.527 66.5057 329.585 66.7551 329.657 67.0668C329.739 67.7047 329.852 68.3354 329.997 68.9589C330.142 69.5823 330.224 70.2202 330.244 70.8726C330.191 71.2132 330.208 71.5706 330.295 71.9447C330.43 72.242 330.533 72.5465 330.605 72.8582C330.866 73.9804 331.126 75.1026 331.386 76.2249C331.632 77.2848 331.822 78.3903 331.958 79.5414C331.968 79.8676 332.047 80.2105 332.197 80.5701C332.346 80.9297 332.464 81.2966 332.55 81.6707L333.418 85.4114C333.49 85.7232 333.528 85.7471 333.533 85.4833C333.537 85.2194 333.576 85.2434 333.648 85.5551C333.677 85.6798 333.73 85.7661 333.807 85.814C333.869 85.7995 333.946 85.8474 334.037 85.9576C334.147 85.8664 334.233 85.8135 334.296 85.7991C334.358 85.7846 334.413 85.739 334.461 85.6622C334.653 85.355 334.749 85.2014 334.749 85.2014C334.734 85.139 334.727 85.1079 334.727 85.1079C334.712 85.0455 334.801 84.8607 334.993 84.5535C335.122 84.2608 335.258 83.9992 335.402 83.7688C335.531 83.476 335.622 83.1593 335.674 82.8187C335.856 82.1853 336.006 81.5591 336.126 80.9402C336.245 80.3213 336.364 79.7023 336.483 79.0834C336.793 77.3034 337.079 75.5618 337.342 73.8586C337.651 72.0786 337.961 70.2985 338.271 68.5185C338.467 67.0936 338.592 65.652 338.648 64.1936C338.767 62.7208 338.784 61.2385 338.701 59.7468C338.667 59.032 338.64 58.3485 338.62 57.6961C338.586 56.9814 338.582 56.2595 338.61 55.5303C338.567 55.3432 338.555 55.149 338.574 54.9475C338.655 54.7315 338.705 54.5228 338.724 54.3213ZM369.148 62.7391C368.865 62.9361 368.714 63.1353 368.695 63.3368C368.738 63.5238 368.719 63.7253 368.638 63.9413C368.552 64.4211 368.498 64.8936 368.474 65.359C368.451 65.8243 368.396 66.2969 368.31 66.7767C368.239 67.3188 368.167 67.8609 368.096 68.4031C368.01 68.8828 367.893 69.3699 367.745 69.8641C367.363 71.3324 367.074 72.779 366.879 74.2039C366.683 75.6288 366.495 77.0849 366.315 78.5722C366.176 79.3926 366.038 80.213 365.9 81.0335C365.824 81.8394 365.717 82.6526 365.579 83.4731C365.536 84.1399 365.263 84.6631 364.76 85.0425C364.079 84.9377 363.366 84.8401 362.623 84.7497C361.956 84.7073 361.243 84.6097 360.485 84.457C359.713 84.2419 359.021 83.8109 358.412 83.1639C357.767 81.8022 357.209 80.3877 356.738 78.9203C356.252 77.3906 355.898 75.8631 355.675 74.3379C355.405 72.8895 355.173 71.465 354.98 70.0645C354.724 68.6784 354.586 67.2322 354.565 65.726C354.492 64.5604 354.458 63.4187 354.461 62.301C354.45 61.121 354.408 59.9482 354.335 58.7826C354.315 58.1302 354.272 57.5162 354.204 56.9407C354.136 56.3651 354.092 55.7511 354.072 55.0987C354.096 54.6334 354.064 54.2137 353.977 53.8396C353.953 53.4511 353.953 53.0242 353.976 52.5588C354.01 52.4197 354.05 52.3117 354.098 52.2349C354.146 52.1581 354.187 52.0501 354.22 51.911C354.565 51.6996 354.978 51.6368 355.458 51.7226C356.153 51.8898 356.794 52.1026 357.379 52.361C358.013 52.5426 358.677 52.717 359.373 52.8842C359.527 52.98 359.688 53.1069 359.856 53.2651C360.072 53.3464 360.295 53.4589 360.525 53.6026C360.583 53.852 360.641 54.1013 360.699 54.3507C360.804 54.5233 360.855 54.7415 360.85 55.0054C361.009 55.6912 361.176 56.4081 361.349 57.1563C361.508 57.8421 361.643 58.5663 361.754 59.3289C361.894 60.2162 362.034 61.1035 362.174 61.9908C362.3 62.8158 362.402 63.6791 362.479 64.5809C362.489 64.9071 362.538 65.2572 362.624 65.6313C362.697 65.943 362.738 66.262 362.748 66.5882C362.907 67.274 363.035 67.967 363.131 68.6673C363.29 69.3531 363.456 70.07 363.63 70.8182C363.821 70.511 363.951 70.2182 364.018 69.9399C364.314 68.9514 364.548 67.9774 364.72 67.0178C364.891 66.0583 365.032 65.1059 365.141 64.1608C365.194 63.8201 365.246 63.4795 365.298 63.1389C365.399 62.7214 365.475 62.3424 365.528 62.0017C365.862 60.6102 366.134 59.2332 366.344 57.8707C366.601 56.4313 366.835 55.0303 367.044 53.6678C367.082 53.2648 367.159 52.8857 367.273 52.5306C367.374 52.1132 367.481 51.7269 367.596 51.3718C367.711 51.0167 367.794 50.6688 367.847 50.3282C367.947 49.9108 367.985 49.5078 367.961 49.1192C368.009 49.0424 368.025 48.9729 368.011 48.9105C368.059 48.8337 368.107 48.7569 368.154 48.6801C368.404 48.6223 368.529 48.5934 368.529 48.5934C369.287 48.7461 370.045 48.8988 370.803 49.0515C371.546 49.1419 372.257 49.3714 372.933 49.7401C373.548 50.1232 373.949 50.72 374.137 51.5305C374.281 52.154 374.395 52.7847 374.477 53.4226C374.607 53.9837 374.675 54.5593 374.68 55.1493C374.647 55.2884 374.659 55.4827 374.717 55.7321C374.795 56.6338 374.911 57.5595 375.065 58.5092C375.268 59.382 375.408 60.2693 375.485 61.1711C375.567 61.809 375.65 62.4469 375.732 63.0848C375.862 63.646 375.961 64.2143 376.029 64.7899L376.354 66.1927C376.454 65.7752 376.538 65.4273 376.605 65.149C376.672 64.8708 376.738 64.5925 376.805 64.3142C377.015 62.9516 377.27 61.6441 377.571 60.3918C377.92 59.0627 378.3 57.7263 378.711 56.3827C378.979 55.2695 379.246 54.1564 379.514 53.0432C379.829 51.8532 380.113 50.6704 380.366 49.4949C380.533 48.7992 380.677 48.1418 380.796 47.5229C380.901 46.8416 381.044 46.1843 381.225 45.5509C381.321 45.3973 381.424 45.2748 381.534 45.1836C382.187 45.1637 382.806 45.283 383.391 45.5414C384.255 45.8667 385.09 46.0673 385.896 46.1433C387.182 46.305 388.046 47.0572 388.489 48.3999C388.946 49.805 389.372 51.2173 389.767 52.6368C390.224 54.0418 390.712 55.4396 391.232 56.8302C391.559 57.6742 391.824 58.5326 392.026 59.4054C392.214 60.2159 392.471 61.0431 392.798 61.8871C393.578 64.3999 394.25 66.872 394.814 69.3035L395.009 70.1452C395.225 70.2265 395.357 70.2288 395.405 70.152C395.452 70.0752 395.532 69.9912 395.642 69.8999C396.552 68.4407 397.428 66.6936 398.27 64.6588C399.16 62.5472 399.844 60.6805 400.322 59.0586C400.374 58.718 400.465 58.4013 400.594 58.1085C400.724 57.8158 400.846 57.4918 400.96 57.1367C401.401 56.7717 401.763 56.4907 402.046 56.2937C402.416 56.4708 402.778 56.6168 403.133 56.7315C403.55 56.8318 403.937 56.9394 404.292 57.0541C404.412 57.289 404.494 57.5 404.537 57.6871C404.58 57.8741 404.662 58.0851 404.782 58.32C404.548 59.2941 404.209 60.5224 403.764 62.0052C403.305 63.4256 402.928 64.63 402.631 65.6185C402.579 65.9591 402.488 66.2758 402.359 66.5686C402.292 66.8469 402.17 67.1708 401.993 67.5404C401.51 68.5722 401.002 69.6425 400.471 70.7511C400.002 71.8453 399.495 72.9156 398.949 73.9619C398.882 74.2402 398.745 74.5018 398.539 74.7467C398.381 74.9147 398.199 75.1212 397.993 75.366C397.681 75.4383 397.37 75.5106 397.058 75.5829C396.746 75.6552 396.442 75.7586 396.144 75.8932C394.969 75.6402 393.793 75.3872 392.618 75.1342C391.505 74.8667 390.36 74.6064 389.185 74.3534C387.654 73.9856 386.365 73.1019 385.318 71.7023C384.939 71.199 384.59 70.6885 384.273 70.1707C384.004 69.5762 383.79 68.936 383.631 68.2502L382.72 64.3224C382.677 64.1354 382.602 63.9556 382.496 63.783C382.439 63.5336 382.366 63.2219 382.28 62.8478C382.141 63.6682 382.02 64.4191 381.915 65.1004C381.858 65.7048 381.801 66.3093 381.744 66.9138C381.511 68.7417 381.271 70.5384 381.023 72.304C380.775 74.0695 380.396 75.8328 379.884 77.5939C379.736 78.0881 379.581 78.5512 379.418 78.9831C379.385 79.1222 379.344 79.2302 379.296 79.307C379.248 79.3838 379.208 79.4918 379.174 79.6309C378.719 79.9336 378.182 80.0253 377.563 79.906C376.387 79.653 375.18 79.4072 373.943 79.1687C372.983 78.997 371.98 78.6382 370.934 78.0925C370.588 77.45 370.342 76.8171 370.198 76.1936C370.101 75.4933 370.036 74.7859 370.001 74.0711C369.953 73.2941 369.873 72.5242 369.761 71.7616C369.636 70.9367 369.549 70.1357 369.5 69.3586C369.437 68.5192 369.381 67.711 369.332 66.9339C369.345 66.1424 369.359 65.3509 369.373 64.5593C369.363 64.2331 369.329 63.9454 369.271 63.696C369.261 63.3698 369.189 63.0581 369.054 62.7608C369.351 62.6262 369.363 62.3935 369.089 62.0628C369.07 62.2643 369.09 62.4897 369.148 62.7391Z" fill="white"/>
<path d="M24.3979 63.2759H19.2769V66.4951H25.3257V69H16.0205V55.4922H25.3442V58.0063H19.2769V60.8545H24.3979V63.2759ZM34.3247 66.4766H29.8623L29.083 69H25.604L30.5581 55.4922H33.6196L38.6108 69H35.1133L34.3247 66.4766ZM30.6416 63.9624H33.5454L32.0889 59.2773L30.6416 63.9624ZM46.5708 65.4097C46.5708 64.9334 46.4007 64.5623 46.0605 64.2964C45.7266 64.0304 45.1359 63.7552 44.2886 63.4707C43.4412 63.1862 42.7485 62.911 42.2104 62.645C40.4601 61.7853 39.585 60.604 39.585 59.1011C39.585 58.3527 39.8014 57.694 40.2344 57.125C40.6735 56.5498 41.292 56.1045 42.0898 55.7891C42.8877 55.4674 43.7845 55.3066 44.7803 55.3066C45.7513 55.3066 46.6203 55.4798 47.3872 55.8262C48.1603 56.1725 48.7603 56.6673 49.187 57.3105C49.6138 57.9476 49.8271 58.6774 49.8271 59.5H46.5801C46.5801 58.9495 46.41 58.5228 46.0698 58.2197C45.7358 57.9167 45.2812 57.7651 44.7061 57.7651C44.1247 57.7651 43.6639 57.895 43.3237 58.1548C42.9897 58.4084 42.8228 58.7331 42.8228 59.1289C42.8228 59.4753 43.0083 59.7907 43.3794 60.0752C43.7505 60.3535 44.403 60.6442 45.3369 60.9473C46.2708 61.2441 47.0378 61.5658 47.6377 61.9121C49.0973 62.7533 49.8271 63.9129 49.8271 65.3911C49.8271 66.5724 49.3818 67.5002 48.4912 68.1743C47.6006 68.8485 46.3791 69.1855 44.8267 69.1855C43.7319 69.1855 42.7393 68.9907 41.8486 68.6011C40.9642 68.2052 40.2962 67.6672 39.8447 66.9868C39.3994 66.3003 39.1768 65.5117 39.1768 64.6211H42.4424C42.4424 65.3447 42.6279 65.8797 42.999 66.2261C43.3763 66.5662 43.9855 66.7363 44.8267 66.7363C45.3647 66.7363 45.7884 66.6219 46.0977 66.3931C46.4131 66.158 46.5708 65.8302 46.5708 65.4097ZM62.1011 58.0063H58.0469V69H54.7905V58.0063H50.8105V55.4922H62.1011V58.0063ZM76.8892 69H67.4634V66.959L71.8052 62.3945C72.8752 61.1761 73.4102 60.2082 73.4102 59.4907C73.4102 58.9093 73.2834 58.4671 73.0298 58.1641C72.7762 57.861 72.4082 57.7095 71.9258 57.7095C71.4495 57.7095 71.063 57.9136 70.7661 58.3218C70.4692 58.7238 70.3208 59.2279 70.3208 59.834H67.1851C67.1851 59.0052 67.3923 58.2414 67.8066 57.5425C68.221 56.8374 68.7962 56.2869 69.5322 55.8911C70.2682 55.4953 71.0908 55.2974 72 55.2974C73.4596 55.2974 74.5822 55.6344 75.3677 56.3086C76.1593 56.9827 76.5552 57.9507 76.5552 59.2124C76.5552 59.7443 76.4562 60.2638 76.2583 60.771C76.0604 61.272 75.7511 61.8008 75.3306 62.3574C74.9162 62.9079 74.2451 63.647 73.3174 64.5747L71.5732 66.5879H76.8892V69ZM87.8457 63.48C87.8457 65.3045 87.4344 66.7116 86.6118 67.7012C85.7954 68.6908 84.6419 69.1855 83.1514 69.1855C81.6484 69.1855 80.4857 68.6877 79.6631 67.6919C78.8405 66.6961 78.4292 65.2922 78.4292 63.48V61.0122C78.4292 59.1877 78.8374 57.7806 79.6538 56.791C80.4764 55.8014 81.6361 55.3066 83.1328 55.3066C84.6296 55.3066 85.7892 55.8045 86.6118 56.8003C87.4344 57.7961 87.8457 59.2031 87.8457 61.0215V63.48ZM84.7192 60.6133C84.7192 59.6423 84.5924 58.9186 84.3389 58.4424C84.0853 57.96 83.6833 57.7188 83.1328 57.7188C82.5947 57.7188 82.202 57.9414 81.9546 58.3867C81.7134 58.832 81.5835 59.5062 81.5649 60.4092V63.8604C81.5649 64.8685 81.6917 65.6076 81.9453 66.0776C82.1989 66.5415 82.6009 66.7734 83.1514 66.7734C83.6833 66.7734 84.076 66.5477 84.3296 66.0962C84.5832 65.6385 84.7131 64.9242 84.7192 63.9531V60.6133ZM98.895 69H89.4692V66.959L93.811 62.3945C94.881 61.1761 95.416 60.2082 95.416 59.4907C95.416 58.9093 95.2892 58.4671 95.0356 58.1641C94.7821 57.861 94.4141 57.7095 93.9316 57.7095C93.4554 57.7095 93.0688 57.9136 92.772 58.3218C92.4751 58.7238 92.3267 59.2279 92.3267 59.834H89.1909C89.1909 59.0052 89.3981 58.2414 89.8125 57.5425C90.2269 56.8374 90.8021 56.2869 91.5381 55.8911C92.2741 55.4953 93.0967 55.2974 94.0059 55.2974C95.4655 55.2974 96.5881 55.6344 97.3735 56.3086C98.1652 56.9827 98.561 57.9507 98.561 59.2124C98.561 59.7443 98.4621 60.2638 98.2642 60.771C98.0662 61.272 97.757 61.8008 97.3364 62.3574C96.922 62.9079 96.251 63.647 95.3232 64.5747L93.5791 66.5879H98.895V69ZM109.852 63.48C109.852 65.3045 109.44 66.7116 108.618 67.7012C107.801 68.6908 106.648 69.1855 105.157 69.1855C103.654 69.1855 102.492 68.6877 101.669 67.6919C100.846 66.6961 100.435 65.2922 100.435 63.48V61.0122C100.435 59.1877 100.843 57.7806 101.66 56.791C102.482 55.8014 103.642 55.3066 105.139 55.3066C106.635 55.3066 107.795 55.8045 108.618 56.8003C109.44 57.7961 109.852 59.2031 109.852 61.0215V63.48ZM106.725 60.6133C106.725 59.6423 106.598 58.9186 106.345 58.4424C106.091 57.96 105.689 57.7188 105.139 57.7188C104.601 57.7188 104.208 57.9414 103.96 58.3867C103.719 58.832 103.589 59.5062 103.571 60.4092V63.8604C103.571 64.8685 103.698 65.6076 103.951 66.0776C104.205 66.5415 104.607 66.7734 105.157 66.7734C105.689 66.7734 106.082 66.5477 106.335 66.0962C106.589 65.6385 106.719 64.9242 106.725 63.9531V60.6133Z" fill="white"/>
</svg>
